<svg xmlns="http://www.w3.org/2000/svg" viewBox="0 0 24 24" fill="#e8f0ea" fill-rule="evenodd" role="img">
  <path d="M12 1.25a10.75 10.75 0 1 0 0 21.5a10.75 10.75 0 1 0 0-21.5z M7.74 14.209 6.588 12.487 5.428 14.209H4.114L5.898 11.753L4.198 9.455H5.529L6.588 11.01L7.643 9.455H8.983L7.282 11.74L9.08 14.209Z M14.199 12.249Q14.199 13.203 13.641 13.75Q13.083 14.297 12.116 14.297Q11.04 14.297 10.444 13.491Q9.849 12.685 9.849 11.256Q9.849 9.701 10.444 8.945Q11.04 8.189 12.147 8.189Q12.934 8.189 13.389 8.536Q13.844 8.883 14.032 9.613L12.868 9.775Q12.701 9.165 12.121 9.165Q11.62 9.165 11.339 9.641Q11.057 10.118 11.057 11.037Q11.255 10.707 11.607 10.531Q11.958 10.355 12.402 10.355Q13.215 10.355 13.707 10.867Q14.199 11.379 14.199 12.249ZM12.96 12.285Q12.96 11.806 12.716 11.535Q12.472 11.265 12.046 11.265Q11.651 11.265 11.398 11.509Q11.145 11.753 11.145 12.153Q11.145 12.649 11.405 12.992Q11.664 13.335 12.077 13.335Q12.486 13.335 12.723 13.054Q12.96 12.772 12.96 12.285Z M19.007 12.948V14.209H17.829V12.948H15.012V12.021L17.627 8.281H19.007V12.03H19.833V12.948ZM17.829 10.224Q17.829 9.986 17.845 9.709Q17.86 9.433 17.869 9.353Q17.755 9.6 17.456 10.065L16.05 12.03H17.829Z"/>
</svg>
