<svg xmlns="http://www.w3.org/2000/svg" viewBox="0 0 24 24" fill="#c5d4c8"><path d="M3.5 11.2h1.4l.3-1.5h1.6l-.3 1.5h1.3l.2-1.5h1.6l-.3 1.5H11l.2-1.1h1.4l-.3 1.5c1.2 0 2.2.2 2.8.8.5.5.7 1.1.6 1.9-.1 1.1-.7 1.9-1.6 2.3-.7.3-1.6.4-2.7.4H3.8l.7-3.7H3.2l.3-1.6zm3.4 1.6-.4 2.1h2.5c.7 0 1.2-.1 1.5-.3.3-.2.5-.6.5-1.1 0-.4-.1-.6-.4-.8-.3-.2-.7-.2-1.4-.2H7.2l-.3.3zm9.3-3.5c1.1 0 2 .3 2.6.9.6.6.9 1.4.8 2.4-.2 1.6-1.2 2.6-2.8 2.9l1 2.2h-1.6l-.9-2h-1.9l-.5 2h-1.5l2.1-8.4h2.7zm-.3 1.5h-.8l-.9 3.5h1c.8 0 1.3-.2 1.6-.5.3-.3.5-.8.6-1.4.1-.5 0-.9-.2-1.1-.3-.3-.7-.5-1.3-.5z"/></svg>
