<svg xmlns="http://www.w3.org/2000/svg" viewBox="0 0 24 24" fill="currentColor"><path d="M12 3.5c.5 1.1.7 2.3.4 3.4-.2 1-.8 1.8-1.2 2.5-.4.7-.4 1.3-.1 1.8.4.9 1.3 1.4 1.3 1.4s-2-.2-2.7-1.7c-.5-1.2.1-2.4.6-3.3.5-1 .9-1.7.5-2.3-.2-.4-1-.6-1-.6s1.7.1 2.2 1.8zM8.8 14.5s1.6-1 3.2-1 3.2 1 3.2 1-1.4.8-3.2.8-3.2-.8-3.2-.8zm6.8.7s1.4.5 1.4 1.6-2 1.8-2 1.8 1.4-.3 1.4-1.4c0-1-1.1-1.4-1.1-1.4v-.6h.3zm-6.5.7c0 1.7 2.7 2.2 2.7 2.2s-3.1-.3-3.1-2.4c0-1.5 1.3-1.9 1.3-1.9s-1 .5-1 2.1zM9.2 18.2c0 .6.5 1.2 1.7 1.4 1.6.3 3.4.2 4.5-.2.3-.1.5.1.4.4-.8.7-2.6 1.2-4.5 1.2-1.9 0-3.3-.5-3.3-1.6 0-.2.1-.4.4-.5.2-.1.5.1.8.3z"/></svg>
