<svg xmlns="http://www.w3.org/2000/svg" viewBox="0 0 24 24" fill="#c5d4c8"><path d="M12 2.5c-3.2 0-5.5 1.5-6.5 3.5-.8 1.5-.7 3.2.2 4.6.4.6.4 1.1.1 1.7-.5 1.1-.5 2.3.1 3.3.8 1.4 2.5 2.4 4.6 2.7-.3.8-.4 1.6-.2 2.3.4 1.3 1.6 2.1 3.2 2.1 2.5 0 4.2-1.5 4.2-3.6 0-1.2-.6-2.2-1.5-2.9 1.5-.6 2.6-1.7 3.1-3.1.5-1.3.3-2.7-.4-3.9-.5-.8-.4-1.5.1-2.3.7-1.2.7-2.6 0-3.8C17.8 3.5 15.2 2.5 12 2.5zm0 1.8c2.4 0 4.2.7 5 1.9.3.5.3 1.1-.1 1.7-.6 1.1-.6 2.3.1 3.4.4.7.5 1.4.2 2.1-.4 1-1.3 1.7-2.6 2.1l-.8.2.5.6c.7.8 1.1 1.5 1.1 2.3 0 1.1-.9 2-2.4 2-1 0-1.6-.4-1.8-1-.2-.5-.1-1.1.2-1.8l.4-.9-.9-.1c-1.8-.3-3-1-3.5-1.9-.4-.6-.4-1.3 0-2 .6-1.1.6-2.3-.1-3.4-.4-.7-.5-1.4-.1-2.1.7-1.3 2.5-2.1 5.3-2.1z"/></svg>
