<svg xmlns="http://www.w3.org/2000/svg" viewBox="0 0 24 24" fill="currentColor"><path d="M12.5 2c-2.8 0-2.6.9-2.6 2.6v1.2h5.2c1.4 0 2.6 1.2 2.6 2.6v3.9h-5.9c-1.6 0-2.9 1.3-2.9 2.9v2.1c0 1.5 1.2 2.4 2.6 2.4h1.3v-1.5c0-1.7 1.4-3.1 3.1-3.1h4.7c1.5 0 2.4-1.1 2.4-2.6V7.2C20.4 4.1 17.9 2 12.5 2zm-1.3 1.6a.9.9 0 1 1 0 1.8.9.9 0 0 1 0-1.8z"/><path d="M11.5 22c2.8 0 2.6-.9 2.6-2.6v-1.2H9c-1.4 0-2.6-1.2-2.6-2.6V11.7h5.9c1.6 0 2.9-1.3 2.9-2.9V6.7c0-1.5-1.2-2.4-2.6-2.4h-1.3v1.5c0 1.7-1.4 3.1-3.1 3.1H3.5C2 8.9 1.1 10 1.1 11.5v4.3C1.1 19 3.6 22 11.5 22zm1.3-1.6a.9.9 0 1 1 0-1.8.9.9 0 0 1 0 1.8z"/></svg>
